<svg width="343" height="46" viewBox="0 0 343 46" fill="none" xmlns="http://www.w3.org/2000/svg">
<path d="M221.803 2.99989H121.203C120.836 2.99989 120.474 2.99989 120.108 3.00189C119.802 3.00389 119.498 3.0097 119.189 3.01459C118.517 3.02249 117.848 3.08156 117.185 3.1913C116.523 3.30342 115.883 3.5148 115.284 3.8183C114.686 4.12436 114.14 4.52205 113.666 4.99696C113.188 5.47052 112.79 6.0179 112.487 6.61805C112.183 7.21699 111.973 7.85882 111.862 8.52137C111.751 9.18307 111.691 9.85241 111.683 10.5234C111.674 10.83 111.673 11.1376 111.668 11.4442V34.5585C111.673 34.869 111.674 35.1698 111.683 35.4804C111.691 36.1513 111.751 36.8206 111.862 37.4823C111.972 38.1452 112.183 38.7874 112.487 39.3866C112.79 39.9848 113.188 40.53 113.666 41.0009C114.139 41.4779 114.685 41.8759 115.284 42.1796C115.883 42.4839 116.523 42.6965 117.185 42.8104C117.848 42.9192 118.518 42.9783 119.189 42.9872C119.498 42.994 119.802 42.9979 120.108 42.9979C120.474 42.9999 120.836 42.9999 121.203 42.9999H221.803C222.162 42.9999 222.527 42.9999 222.887 42.9979C223.191 42.9979 223.504 42.994 223.809 42.9872C224.479 42.9788 225.147 42.9197 225.809 42.8104C226.472 42.6957 227.115 42.4831 227.717 42.1796C228.315 41.8757 228.861 41.4777 229.334 41.0009C229.81 40.5281 230.209 39.9833 230.516 39.3866C230.818 38.787 231.026 38.1448 231.135 37.4823C231.246 36.8205 231.308 36.1514 231.32 35.4804C231.324 35.1698 231.324 34.869 231.324 34.5585C231.332 34.1952 231.332 33.8339 231.332 33.4647V12.536C231.332 12.1698 231.332 11.8065 231.324 11.4442C231.324 11.1376 231.324 10.83 231.32 10.5233C231.308 9.85231 231.246 9.18312 231.135 8.52133C231.026 7.85917 230.817 7.21739 230.516 6.61801C229.898 5.41508 228.92 4.43591 227.717 3.81821C227.115 3.51545 226.472 3.30413 225.809 3.19121C225.148 3.08099 224.479 3.02189 223.809 3.01445C223.504 3.00957 223.191 3.00371 222.887 3.00176C222.527 2.99976 222.162 2.99976 221.803 2.99976V2.99989Z" fill="#A6A6A6"/>
<path d="M120.113 42.1249C119.808 42.1249 119.511 42.121 119.209 42.1142C118.582 42.106 117.958 42.0515 117.339 41.9511C116.763 41.8518 116.205 41.6671 115.683 41.4032C115.166 41.1414 114.694 40.7982 114.286 40.3866C113.872 39.9799 113.527 39.5081 113.265 38.9901C113.001 38.4687 112.817 37.9098 112.722 37.3329C112.619 36.713 112.564 36.0862 112.556 35.4579C112.549 35.247 112.541 34.5448 112.541 34.5448V11.4442C112.541 11.4442 112.55 10.7528 112.556 10.5497C112.563 9.92236 112.619 9.29653 112.721 8.67761C112.817 8.09913 113 7.53863 113.265 7.01551C113.525 6.49782 113.868 6.02574 114.28 5.61756C114.691 5.2055 115.164 4.86048 115.682 4.59509C116.203 4.33197 116.76 4.14861 117.335 4.05115C117.956 3.94971 118.583 3.89487 119.211 3.88709L120.113 3.87488H222.882L223.795 3.88758C224.418 3.89498 225.039 3.94933 225.653 4.05017C226.234 4.14885 226.798 4.33349 227.324 4.59802C228.362 5.13286 229.207 5.97904 229.739 7.01795C230 7.53746 230.18 8.09338 230.274 8.66687C230.378 9.29087 230.436 9.92162 230.448 10.5541C230.451 10.8373 230.451 11.1415 230.451 11.4442C230.459 11.8192 230.459 12.1761 230.459 12.536V33.4647C230.459 33.828 230.459 34.1825 230.451 34.5399C230.451 34.8651 230.451 35.163 230.447 35.4696C230.436 36.0908 230.378 36.7102 230.276 37.3231C230.183 37.9041 230.001 38.4674 229.736 38.9931C229.473 39.5055 229.13 39.9731 228.721 40.3788C228.312 40.7926 227.84 41.1378 227.321 41.4013C226.796 41.6673 226.234 41.8526 225.653 41.9511C225.035 42.052 224.41 42.1066 223.784 42.1142C223.491 42.121 223.185 42.1249 222.887 42.1249L221.803 42.1269L120.113 42.1249Z" fill="black"/>
<path d="M136.437 23.3009C136.448 22.4663 136.669 21.6479 137.081 20.9219C137.493 20.196 138.082 19.5861 138.794 19.1489C138.342 18.5037 137.746 17.9728 137.053 17.5982C136.36 17.2237 135.59 17.0158 134.802 16.9912C133.123 16.8149 131.495 17.996 130.639 17.996C129.767 17.996 128.45 17.0087 127.031 17.0379C126.113 17.0675 125.219 17.3344 124.435 17.8124C123.651 18.2905 123.005 18.9635 122.558 19.7658C120.624 23.1142 122.067 28.0352 123.919 30.7418C124.846 32.0672 125.929 33.5476 127.347 33.4951C128.734 33.4376 129.252 32.6107 130.926 32.6107C132.585 32.6107 133.071 33.4951 134.517 33.4618C136.006 33.4376 136.943 32.1305 137.838 30.7926C138.504 29.8483 139.016 28.8045 139.356 27.7001C138.491 27.3344 137.754 26.7222 137.234 25.9399C136.715 25.1576 136.438 24.2398 136.437 23.3009V23.3009Z" fill="white"/>
<path d="M133.705 15.2112C134.517 14.237 134.917 12.9848 134.82 11.7206C133.58 11.8508 132.435 12.4434 131.612 13.3802C131.21 13.8379 130.902 14.3703 130.706 14.9471C130.51 15.5238 130.429 16.1336 130.469 16.7416C131.089 16.748 131.702 16.6136 132.263 16.3485C132.823 16.0834 133.317 15.6945 133.705 15.2112Z" fill="white"/>
<path d="M153.97 30.1396H149.237L148.1 33.496H146.095L150.579 21.078H152.662L157.145 33.496H155.106L153.97 30.1396ZM149.727 28.5907H153.479L151.629 23.1435H151.578L149.727 28.5907Z" fill="white"/>
<path d="M166.828 28.9693C166.828 31.7828 165.322 33.5904 163.049 33.5904C162.474 33.6205 161.901 33.4879 161.397 33.2078C160.894 32.9277 160.479 32.5113 160.201 32.0064H160.158V36.4908H158.299V24.442H160.098V25.9478H160.132C160.423 25.4454 160.845 25.0312 161.353 24.7493C161.86 24.4675 162.435 24.3285 163.015 24.3473C165.313 24.3473 166.828 26.1637 166.828 28.9693ZM164.918 28.9693C164.918 27.1363 163.97 25.9312 162.525 25.9312C161.105 25.9312 160.15 27.1617 160.15 28.9693C160.15 30.7935 161.105 32.0152 162.525 32.0152C163.97 32.0152 164.918 30.8189 164.918 28.9693Z" fill="white"/>
<path d="M176.793 28.9693C176.793 31.7828 175.287 33.5904 173.014 33.5904C172.439 33.6205 171.866 33.4879 171.362 33.2078C170.858 32.9276 170.444 32.5113 170.166 32.0064H170.123V36.4908H168.264V24.442H170.063V25.9478H170.097C170.388 25.4454 170.81 25.0312 171.317 24.7493C171.825 24.4675 172.4 24.3285 172.98 24.3473C175.278 24.3473 176.793 26.1637 176.793 28.9693ZM174.882 28.9693C174.882 27.1363 173.935 25.9312 172.49 25.9312C171.07 25.9312 170.115 27.1617 170.115 28.9693C170.115 30.7935 171.07 32.0152 172.49 32.0152C173.935 32.0152 174.882 30.8189 174.882 28.9693H174.882Z" fill="white"/>
<path d="M183.378 30.0361C183.516 31.2675 184.712 32.0761 186.347 32.0761C187.914 32.0761 189.041 31.2675 189.041 30.1571C189.041 29.1932 188.361 28.6161 186.751 28.2206L185.142 27.8329C182.862 27.2821 181.803 26.2157 181.803 24.4852C181.803 22.3427 183.67 20.871 186.322 20.871C188.946 20.871 190.745 22.3427 190.805 24.4852H188.929C188.817 23.246 187.792 22.4979 186.295 22.4979C184.798 22.4979 183.774 23.2548 183.774 24.3563C183.774 25.2343 184.428 25.7509 186.029 26.1463L187.397 26.4823C189.945 27.0848 191.003 28.1083 191.003 29.9247C191.003 32.2479 189.153 33.703 186.209 33.703C183.456 33.703 181.596 32.2821 181.476 30.036L183.378 30.0361Z" fill="white"/>
<path d="M195.014 22.2997V24.4423H196.736V25.9139H195.014V30.9052C195.014 31.6805 195.359 32.0419 196.116 32.0419C196.32 32.0383 196.524 32.024 196.727 31.9989V33.4618C196.387 33.5253 196.041 33.5541 195.695 33.5477C193.862 33.5477 193.147 32.8592 193.147 31.1034V25.9139H191.831V24.4423H193.147V22.2997H195.014Z" fill="white"/>
<path d="M197.733 28.9696C197.733 26.121 199.411 24.3309 202.027 24.3309C204.652 24.3309 206.322 26.1209 206.322 28.9696C206.322 31.8261 204.661 33.6083 202.027 33.6083C199.394 33.6083 197.733 31.826 197.733 28.9696ZM204.428 28.9696C204.428 27.0155 203.533 25.8622 202.027 25.8622C200.521 25.8622 199.626 27.0243 199.626 28.9696C199.626 30.9315 200.521 32.0761 202.027 32.0761C203.533 32.0761 204.428 30.9315 204.428 28.9696H204.428Z" fill="white"/>
<path d="M207.854 24.4419H209.626V25.9829H209.669C209.789 25.5016 210.071 25.0763 210.468 24.7784C210.865 24.4805 211.352 24.3282 211.847 24.3472C212.061 24.3464 212.275 24.3697 212.484 24.4165V26.1548C212.214 26.0722 211.932 26.0342 211.649 26.0425C211.379 26.0315 211.11 26.0791 210.86 26.182C210.61 26.2849 210.385 26.4406 210.202 26.6385C210.018 26.8364 209.879 27.0718 209.794 27.3284C209.71 27.5851 209.682 27.857 209.712 28.1255V33.4956H207.854L207.854 24.4419Z" fill="white"/>
<path d="M221.052 30.8368C220.802 32.4803 219.202 33.6083 217.154 33.6083C214.52 33.6083 212.885 31.8436 212.885 29.0126C212.885 26.1727 214.529 24.3309 217.076 24.3309C219.581 24.3309 221.156 26.0516 221.156 28.7968V29.4335H214.761V29.5458C214.732 29.879 214.773 30.2146 214.884 30.5305C214.994 30.8463 215.17 31.1351 215.4 31.3777C215.631 31.6202 215.91 31.811 216.22 31.9373C216.529 32.0636 216.863 32.1225 217.197 32.1102C217.636 32.1514 218.077 32.0497 218.453 31.8202C218.83 31.5908 219.123 31.2459 219.288 30.8368L221.052 30.8368ZM214.77 28.1346H219.296C219.313 27.835 219.268 27.5352 219.163 27.254C219.058 26.9728 218.897 26.7163 218.688 26.5005C218.48 26.2847 218.229 26.1144 217.951 26.0002C217.674 25.886 217.376 25.8303 217.076 25.8368C216.773 25.835 216.473 25.8931 216.193 26.0079C215.913 26.1226 215.658 26.2917 215.444 26.5053C215.23 26.7189 215.06 26.9729 214.944 27.2526C214.828 27.5322 214.769 27.832 214.77 28.1347V28.1346Z" fill="white"/>
<path d="M149.494 11.7304C149.884 11.7024 150.275 11.7613 150.639 11.9027C151.003 12.0442 151.331 12.2647 151.6 12.5483C151.868 12.8319 152.071 13.1716 152.192 13.5429C152.313 13.9141 152.351 14.3077 152.302 14.6952C152.302 16.6015 151.271 17.6972 149.494 17.6972H147.339V11.7304H149.494ZM148.266 16.8534H149.391C149.669 16.87 149.948 16.8244 150.206 16.7198C150.465 16.6152 150.697 16.4542 150.885 16.2487C151.074 16.0431 151.214 15.7981 151.296 15.5315C151.378 15.2648 151.399 14.9833 151.358 14.7074C151.396 14.4326 151.373 14.1528 151.289 13.8881C151.206 13.6235 151.066 13.3805 150.878 13.1765C150.69 12.9726 150.459 12.8128 150.202 12.7086C149.945 12.6043 149.668 12.5582 149.391 12.5736H148.266V16.8534Z" fill="white"/>
<path d="M153.349 15.4438C153.32 15.1479 153.354 14.8493 153.448 14.5672C153.542 14.2852 153.694 14.0258 153.894 13.8059C154.094 13.5859 154.337 13.4101 154.609 13.2898C154.881 13.1696 155.175 13.1074 155.472 13.1074C155.769 13.1074 156.063 13.1696 156.335 13.2898C156.607 13.4101 156.851 13.5859 157.051 13.8059C157.251 14.0258 157.403 14.2852 157.496 14.5672C157.59 14.8493 157.624 15.1479 157.596 15.4438C157.625 15.74 157.591 16.039 157.498 16.3215C157.404 16.6041 157.252 16.8639 157.052 17.0843C156.852 17.3047 156.608 17.4808 156.336 17.6014C156.064 17.7219 155.77 17.7842 155.472 17.7842C155.175 17.7842 154.88 17.7219 154.608 17.6014C154.336 17.4808 154.092 17.3047 153.892 17.0843C153.692 16.8639 153.54 16.6041 153.447 16.3215C153.353 16.039 153.32 15.74 153.349 15.4438V15.4438ZM156.682 15.4438C156.682 14.4677 156.243 13.8969 155.474 13.8969C154.701 13.8969 154.267 14.4677 154.267 15.4438C154.267 16.4277 154.701 16.9941 155.474 16.9941C156.243 16.9941 156.682 16.4238 156.682 15.4438H156.682Z" fill="white"/>
<path d="M163.241 17.6971H162.319L161.389 14.3807H161.318L160.392 17.6971H159.479L158.237 13.1942H159.139L159.945 16.6302H160.012L160.938 13.1942H161.79L162.716 16.6302H162.786L163.589 13.1942H164.478L163.241 17.6971Z" fill="white"/>
<path d="M165.521 13.1938H166.377V13.9091H166.443C166.556 13.6522 166.746 13.4368 166.987 13.293C167.228 13.1492 167.508 13.0841 167.787 13.1068C168.006 13.0904 168.226 13.1234 168.431 13.2035C168.635 13.2836 168.819 13.4087 168.969 13.5696C169.119 13.7304 169.23 13.9229 169.296 14.1327C169.361 14.3425 169.378 14.5643 169.346 14.7816V17.6966H168.457V15.0048C168.457 14.2812 168.143 13.9213 167.485 13.9213C167.337 13.9144 167.188 13.9397 167.05 13.9955C166.912 14.0514 166.788 14.1364 166.686 14.2448C166.583 14.3532 166.506 14.4823 166.458 14.6235C166.411 14.7646 166.394 14.9143 166.41 15.0624V17.6967H165.521L165.521 13.1938Z" fill="white"/>
<path d="M170.762 11.4364H171.65V17.6971H170.762V11.4364Z" fill="white"/>
<path d="M172.886 15.4438C172.857 15.1478 172.891 14.8492 172.985 14.5672C173.079 14.2851 173.231 14.0257 173.431 13.8057C173.631 13.5858 173.875 13.41 174.146 13.2897C174.418 13.1694 174.712 13.1073 175.01 13.1073C175.307 13.1073 175.601 13.1694 175.873 13.2897C176.145 13.41 176.388 13.5858 176.588 13.8057C176.788 14.0257 176.94 14.2851 177.034 14.5672C177.128 14.8492 177.162 15.1478 177.133 15.4438C177.162 15.74 177.129 16.039 177.035 16.3215C176.941 16.604 176.79 16.8638 176.59 17.0842C176.39 17.3047 176.146 17.4808 175.874 17.6013C175.602 17.7218 175.307 17.7841 175.01 17.7841C174.712 17.7841 174.418 17.7218 174.145 17.6013C173.873 17.4808 173.629 17.3047 173.429 17.0842C173.229 16.8638 173.078 16.604 172.984 16.3215C172.89 16.039 172.857 15.74 172.886 15.4438V15.4438ZM176.219 15.4438C176.219 14.4677 175.78 13.8969 175.011 13.8969C174.238 13.8969 173.804 14.4677 173.804 15.4438C173.804 16.4277 174.238 16.9941 175.011 16.9941C175.78 16.9941 176.219 16.4237 176.219 15.4438H176.219Z" fill="white"/>
<path d="M178.069 16.4237C178.069 15.6132 178.672 15.1459 179.744 15.0795L180.963 15.0092V14.6205C180.963 14.1449 180.649 13.8763 180.042 13.8763C179.545 13.8763 179.202 14.0585 179.103 14.3768H178.243C178.333 13.6034 179.061 13.1073 180.083 13.1073C181.211 13.1073 181.848 13.6693 181.848 14.6205V17.6971H180.993V17.0643H180.922C180.78 17.2913 180.579 17.4764 180.342 17.6006C180.104 17.7248 179.838 17.7837 179.57 17.7713C179.381 17.791 179.19 17.7708 179.009 17.7121C178.828 17.6534 178.662 17.5575 178.52 17.4305C178.379 17.3036 178.266 17.1484 178.188 16.975C178.11 16.8015 178.07 16.6138 178.069 16.4237V16.4237ZM180.963 16.0389V15.6625L179.864 15.7328C179.244 15.7743 178.962 15.9852 178.962 16.3822C178.962 16.7875 179.314 17.0233 179.797 17.0233C179.939 17.0376 180.082 17.0233 180.218 16.9812C180.354 16.9392 180.48 16.8701 180.589 16.7783C180.698 16.6865 180.787 16.5737 180.851 16.4466C180.916 16.3196 180.954 16.181 180.963 16.0389V16.0389Z" fill="white"/>
<path d="M183.016 15.4437C183.016 14.0209 183.748 13.1195 184.885 13.1195C185.167 13.1066 185.446 13.174 185.69 13.3139C185.935 13.4537 186.135 13.6604 186.266 13.9095H186.333V11.4364H187.221V17.6971H186.37V16.9857H186.299C186.158 17.2332 185.951 17.4372 185.702 17.5757C185.453 17.7142 185.17 17.7819 184.885 17.7714C183.74 17.7714 183.016 16.87 183.016 15.4437ZM183.934 15.4437C183.934 16.3988 184.384 16.9735 185.137 16.9735C185.886 16.9735 186.349 16.3905 186.349 15.4477C186.349 14.5092 185.881 13.9179 185.137 13.9179C184.389 13.9179 183.934 14.4965 183.934 15.4437H183.934Z" fill="white"/>
<path d="M190.898 15.4438C190.87 15.1479 190.904 14.8493 190.997 14.5672C191.091 14.2852 191.243 14.0258 191.443 13.8059C191.643 13.5859 191.887 13.4101 192.158 13.2898C192.43 13.1696 192.724 13.1074 193.022 13.1074C193.319 13.1074 193.613 13.1696 193.885 13.2898C194.156 13.4101 194.4 13.5859 194.6 13.8059C194.8 14.0258 194.952 14.2852 195.046 14.5672C195.14 14.8493 195.173 15.1479 195.145 15.4438C195.174 15.74 195.14 16.039 195.047 16.3215C194.953 16.6041 194.802 16.8639 194.602 17.0843C194.402 17.3047 194.158 17.4808 193.886 17.6014C193.613 17.7219 193.319 17.7842 193.022 17.7842C192.724 17.7842 192.43 17.7219 192.157 17.6014C191.885 17.4808 191.641 17.3047 191.441 17.0843C191.241 16.8639 191.09 16.6041 190.996 16.3215C190.903 16.039 190.869 15.74 190.898 15.4438V15.4438ZM194.231 15.4438C194.231 14.4677 193.793 13.8969 193.023 13.8969C192.251 13.8969 191.816 14.4677 191.816 15.4438C191.816 16.4277 192.251 16.9941 193.023 16.9941C193.793 16.9941 194.231 16.4238 194.231 15.4438Z" fill="white"/>
<path d="M196.337 13.1938H197.193V13.9091H197.259C197.372 13.6522 197.562 13.4368 197.803 13.293C198.044 13.1492 198.323 13.0841 198.603 13.1068C198.822 13.0904 199.042 13.1234 199.247 13.2035C199.451 13.2836 199.635 13.4087 199.785 13.5696C199.935 13.7304 200.046 13.9229 200.111 14.1327C200.177 14.3425 200.194 14.5643 200.162 14.7816V17.6966H199.273V15.0048C199.273 14.2812 198.959 13.9213 198.301 13.9213C198.153 13.9144 198.004 13.9397 197.866 13.9955C197.728 14.0514 197.604 14.1364 197.501 14.2448C197.399 14.3532 197.322 14.4823 197.274 14.6235C197.227 14.7646 197.21 14.9143 197.226 15.0624V17.6967H196.337V13.1938Z" fill="white"/>
<path d="M205.183 12.0731V13.2147H206.159V13.9633H205.183V16.2787C205.183 16.7504 205.377 16.9569 205.82 16.9569C205.933 16.9565 206.046 16.9497 206.159 16.9364V17.6766C205.999 17.7052 205.837 17.7204 205.675 17.722C204.687 17.722 204.293 17.3744 204.293 16.5062V13.9632H203.579V13.2147H204.293V12.0731H205.183Z" fill="white"/>
<path d="M207.373 11.4364H208.253V13.9179H208.324C208.442 13.6585 208.637 13.4419 208.883 13.2976C209.128 13.1532 209.413 13.0882 209.697 13.1112C209.915 13.0994 210.133 13.1357 210.335 13.2178C210.537 13.2998 210.719 13.4255 210.867 13.5858C211.015 13.7462 211.126 13.9372 211.192 14.1454C211.258 14.3535 211.277 14.5736 211.248 14.7899V17.6972H210.358V15.0092C210.358 14.2899 210.023 13.9257 209.395 13.9257C209.242 13.9131 209.089 13.9341 208.945 13.9872C208.801 14.0402 208.671 14.1241 208.563 14.2328C208.455 14.3415 208.372 14.4726 208.32 14.6167C208.268 14.7608 208.248 14.9146 208.261 15.0673V17.6971H207.373L207.373 11.4364Z" fill="white"/>
<path d="M216.429 16.4813C216.308 16.8928 216.047 17.2488 215.69 17.4869C215.333 17.7251 214.904 17.8302 214.478 17.784C214.181 17.7918 213.886 17.735 213.614 17.6175C213.341 17.5 213.098 17.3245 212.9 17.1034C212.702 16.8823 212.555 16.6207 212.468 16.3369C212.381 16.0531 212.357 15.7538 212.398 15.4598C212.358 15.1649 212.383 14.865 212.469 14.5803C212.556 14.2956 212.702 14.0329 212.899 13.8098C213.096 13.5867 213.339 13.4085 213.61 13.2873C213.882 13.1661 214.177 13.1047 214.474 13.1073C215.727 13.1073 216.483 13.9633 216.483 15.3773V15.6873H213.303V15.7371C213.289 15.9024 213.31 16.0687 213.364 16.2255C213.418 16.3822 213.505 16.5259 213.617 16.6474C213.73 16.7688 213.867 16.8654 214.02 16.9308C214.172 16.9962 214.337 17.029 214.502 17.0271C214.715 17.0527 214.93 17.0144 215.121 16.9172C215.312 16.82 215.469 16.6682 215.574 16.4812L216.429 16.4813ZM213.303 15.0301H215.578C215.589 14.879 215.568 14.7272 215.517 14.5845C215.466 14.4417 215.386 14.3113 215.282 14.2014C215.177 14.0915 215.051 14.0047 214.911 13.9466C214.771 13.8884 214.621 13.8601 214.469 13.8636C214.315 13.8617 214.163 13.8905 214.021 13.9485C213.878 14.0064 213.749 14.0923 213.64 14.201C213.531 14.3097 213.446 14.4391 213.388 14.5815C213.33 14.7239 213.301 14.8764 213.303 15.0301H213.303Z" fill="white"/>
</svg>
