<svg width="343" height="24" viewBox="0 0 343 24" fill="none" xmlns="http://www.w3.org/2000/svg">
<path d="M97.312 5.01711H85.645C83.355 5.01711 81.5 6.85211 81.5 9.11611V14.8841C81.5 17.1481 83.356 18.9841 85.645 18.9841H97.312C99.602 18.9841 101.457 17.1481 101.457 14.8841V9.11611C101.457 6.85211 99.601 5.01611 97.312 5.01611V5.01711ZM94.509 12.2801L89.052 14.8551C89.0187 14.8711 88.9819 14.8785 88.945 14.8765C88.9081 14.8744 88.8724 14.8631 88.841 14.8436C88.8097 14.824 88.7838 14.7968 88.7658 14.7646C88.7478 14.7323 88.7382 14.6961 88.738 14.6591V9.35011C88.7387 9.31299 88.7487 9.27663 88.7672 9.24444C88.7857 9.21224 88.8121 9.18526 88.8438 9.16599C88.8756 9.14672 88.9117 9.13581 88.9488 9.13425C88.9859 9.1327 89.0228 9.14057 89.056 9.15711L94.514 11.8921C94.5504 11.9102 94.5809 11.9383 94.602 11.9729C94.6232 12.0076 94.6341 12.0476 94.6336 12.0882C94.6331 12.1288 94.6211 12.1685 94.5991 12.2026C94.577 12.2367 94.5458 12.2639 94.509 12.2811V12.2801Z" fill="#E2E8F0"/>
<path d="M128.546 5.865V8.613H126.532V11.973H128.546V21.959H132.68V11.974H135.455C135.455 11.974 135.715 10.363 135.841 8.601H132.697V6.303C132.697 5.96 133.147 5.498 133.593 5.498H135.847V2H132.783C128.443 2 128.546 5.363 128.546 5.865V5.865Z" fill="#E2E8F0"/>
<path d="M181.5 5.90692C180.75 6.2343 179.956 6.44896 179.144 6.54392C179.997 6.04315 180.638 5.24903 180.948 4.30992C180.14 4.78025 179.259 5.11152 178.341 5.28992C177.955 4.88513 177.49 4.56331 176.975 4.3441C176.46 4.12489 175.906 4.01289 175.346 4.01492C173.08 4.01492 171.243 5.82492 171.243 8.05492C171.243 8.37092 171.279 8.67992 171.349 8.97492C169.724 8.89761 168.132 8.48233 166.676 7.75556C165.22 7.02879 163.932 6.0065 162.893 4.75392C162.529 5.36832 162.337 6.0697 162.339 6.78392C162.34 7.45189 162.507 8.10915 162.825 8.69631C163.144 9.28348 163.604 9.78203 164.163 10.1469C163.512 10.1259 162.876 9.95225 162.305 9.63992V9.68992C162.305 11.6479 163.72 13.2809 165.595 13.6529C165.243 13.7464 164.88 13.7938 164.515 13.7939C164.25 13.7939 163.993 13.7689 163.742 13.7189C164.01 14.5268 164.523 15.2312 165.21 15.7343C165.897 16.2373 166.723 16.514 167.574 16.5259C166.114 17.6505 164.322 18.258 162.479 18.2529C162.147 18.2529 161.821 18.2329 161.5 18.1969C163.381 19.3876 165.563 20.0182 167.789 20.0149C175.336 20.0149 179.462 13.8579 179.462 8.51892L179.448 7.99592C180.253 7.42959 180.948 6.72177 181.5 5.90692V5.90692Z" fill="#E2E8F0"/>
<path d="M215.517 2H207.447C205.87 2.00185 204.358 2.62914 203.244 3.74424C202.129 4.85933 201.502 6.37115 201.5 7.948V16.018C201.502 17.5948 202.129 19.1066 203.244 20.2215C204.359 21.3364 205.871 21.9634 207.448 21.965H215.518C217.095 21.9631 218.607 21.3359 219.721 20.2208C220.836 19.1057 221.463 17.5938 221.465 16.017V7.947C221.463 6.37015 220.836 4.85844 219.721 3.74353C218.606 2.62862 217.094 2.00159 215.517 2V2ZM219.457 16.017C219.457 16.5344 219.355 17.0467 219.157 17.5248C218.959 18.0028 218.669 18.4371 218.303 18.803C217.937 19.1689 217.503 19.4591 217.025 19.6571C216.547 19.8551 216.034 19.957 215.517 19.957H207.447C206.402 19.9567 205.4 19.5415 204.662 18.8026C203.923 18.0638 203.508 17.0618 203.508 16.017V7.947C203.508 6.90222 203.923 5.90032 204.662 5.16165C205.401 4.42297 206.403 4.008 207.448 4.008H215.518C216.563 4.00827 217.565 4.42349 218.303 5.16235C219.042 5.90122 219.457 6.90322 219.457 7.948V16.018V16.017Z" fill="#E2E8F0"/>
<path d="M211.482 6.81909C210.113 6.82121 208.802 7.36588 207.834 8.3337C206.866 9.30152 206.322 10.6135 206.32 11.9821C206.322 13.351 206.866 14.6634 207.834 15.6315C208.802 16.5996 210.114 17.1442 211.483 17.1461C212.852 17.1445 214.165 16.5999 215.133 15.6318C216.101 14.6637 216.645 13.3512 216.647 11.9821C216.645 10.6132 216.1 9.30098 215.132 8.33329C214.164 7.3656 212.851 6.82141 211.482 6.82009V6.81909ZM211.482 15.1381C210.645 15.1381 209.843 14.8057 209.251 14.214C208.659 13.6223 208.327 12.8198 208.327 11.9831C208.327 11.1463 208.659 10.3438 209.251 9.75217C209.843 9.16049 210.645 8.82809 211.482 8.82809C212.319 8.82809 213.121 9.16049 213.713 9.75217C214.305 10.3438 214.637 11.1463 214.637 11.9831C214.637 12.8198 214.305 13.6223 213.713 14.214C213.121 14.8057 212.319 15.1381 211.482 15.1381V15.1381Z" fill="#E2E8F0"/>
<path d="M216.656 8.09509C217.339 8.09509 217.893 7.54127 217.893 6.85809C217.893 6.17492 217.339 5.62109 216.656 5.62109C215.973 5.62109 215.419 6.17492 215.419 6.85809C215.419 7.54127 215.973 8.09509 216.656 8.09509Z" fill="#E2E8F0"/>
<path d="M261.459 13.7189V21.0979H257.181V14.2129C257.181 12.4829 256.562 11.3029 255.014 11.3029C253.832 11.3029 253.128 12.0989 252.819 12.8679C252.706 13.1429 252.677 13.5259 252.677 13.9109V21.0979H248.397C248.397 21.0979 248.455 9.43788 248.397 8.22888H252.677V10.0529L252.649 10.0949H252.677V10.0529C253.245 9.17788 254.26 7.92688 256.533 7.92688C259.348 7.92688 261.459 9.76688 261.459 13.7189V13.7189ZM243.921 2.02588C242.458 2.02588 241.5 2.98588 241.5 4.24888C241.5 5.48388 242.43 6.47288 243.865 6.47288H243.893C245.386 6.47288 246.313 5.48388 246.313 4.24888C246.287 2.98588 245.387 2.02588 243.922 2.02588H243.921ZM241.754 21.0979H246.032V8.22888H241.754V21.0979Z" fill="#E2E8F0"/>
</svg>
