<svg width="86" height="17" viewBox="0 0 86 17" fill="none" xmlns="http://www.w3.org/2000/svg">
<path d="M28.1401 4.74992C27.2976 4.7519 26.4745 5.00368 25.7751 5.47342C25.0756 5.94316 24.5312 6.60976 24.2106 7.38893C23.89 8.16809 23.8076 9.02483 23.9739 9.8508C24.1402 10.6768 24.5477 11.4349 25.1449 12.0293C25.7421 12.6236 26.5021 13.0276 27.3288 13.19C28.1556 13.3524 29.0119 13.2661 29.7896 12.9418C30.5672 12.6175 31.2313 12.07 31.6977 11.3683C32.1642 10.6667 32.4121 9.84247 32.4101 8.99992C32.4183 8.43786 32.3132 7.8799 32.1013 7.35927C31.8893 6.83863 31.5748 6.36598 31.1764 5.96943C30.7779 5.57288 30.3038 5.26056 29.7822 5.05105C29.2606 4.84154 28.7021 4.73913 28.1401 4.74992V4.74992ZM28.1401 11.5799C27.6237 11.616 27.1083 11.496 26.6611 11.2353C26.2138 10.9747 25.8553 10.5855 25.6321 10.1184C25.409 9.65125 25.3315 9.1278 25.4098 8.61607C25.4881 8.10434 25.7185 7.628 26.0711 7.24896C26.4237 6.86992 26.8821 6.60572 27.3869 6.4907C27.8916 6.37568 28.4193 6.41516 28.9013 6.60401C29.3833 6.79286 29.7973 7.12234 30.0896 7.54963C30.3819 7.97692 30.5388 8.48224 30.5401 8.99992C30.5562 9.32794 30.5065 9.65586 30.3938 9.96434C30.2812 10.2728 30.1079 10.5556 29.8842 10.7961C29.6606 11.0366 29.391 11.2298 29.0914 11.3644C28.7919 11.499 28.4684 11.5723 28.1401 11.5799ZM18.8201 4.74992C17.9776 4.7519 17.1545 5.00368 16.4551 5.47342C15.7556 5.94316 15.2112 6.60976 14.8906 7.38893C14.57 8.16809 14.4876 9.02483 14.6539 9.8508C14.8202 10.6768 15.2277 11.4349 15.8249 12.0293C16.4221 12.6236 17.1821 13.0276 18.0088 13.19C18.8356 13.3524 19.6919 13.2661 20.4696 12.9418C21.2472 12.6175 21.9113 12.07 22.3777 11.3683C22.8442 10.6667 23.0921 9.84247 23.0901 8.99992C23.0982 8.43786 22.9932 7.8799 22.7813 7.35927C22.5693 6.83863 22.2548 6.36598 21.8564 5.96943C21.4579 5.57288 20.9838 5.26056 20.4622 5.05105C19.9406 4.84154 19.3821 4.73913 18.8201 4.74992V4.74992ZM18.8201 11.5799C18.3037 11.616 17.7883 11.496 17.3411 11.2353C16.8938 10.9747 16.5353 10.5855 16.3121 10.1184C16.089 9.65125 16.0115 9.1278 16.0898 8.61607C16.1681 8.10434 16.3985 7.628 16.7511 7.24896C17.1037 6.86992 17.5621 6.60572 18.0669 6.4907C18.5716 6.37568 19.0993 6.41516 19.5813 6.60401C20.0633 6.79286 20.4773 7.12234 20.7696 7.54963C21.0619 7.97692 21.2188 8.48224 21.2201 8.99992C21.2362 9.32794 21.1865 9.65586 21.0738 9.96434C20.9612 10.2728 20.7879 10.5556 20.5642 10.7961C20.3406 11.0366 20.071 11.2298 19.7714 11.3644C19.4719 11.499 19.1484 11.5723 18.8201 11.5799ZM7.7401 6.05992V7.85992H12.0601C11.9924 8.70773 11.6399 9.50772 11.0601 10.1299C10.6268 10.5714 10.1056 10.9171 9.53021 11.1444C8.95487 11.3718 8.3382 11.4759 7.7201 11.4499C6.44706 11.4499 5.22616 10.9442 4.32598 10.044C3.42581 9.14386 2.9201 7.92296 2.9201 6.64992C2.9201 5.37689 3.42581 4.15599 4.32598 3.25581C5.22616 2.35564 6.44706 1.84992 7.7201 1.84992C8.94055 1.83177 10.119 2.29525 11.0001 3.13992L12.2701 1.86992C11.6741 1.28043 10.9664 0.815813 10.1886 0.503295C9.4107 0.190777 8.57829 0.0366426 7.7401 0.0499221C6.8511 0.0153242 5.96426 0.16055 5.13272 0.476894C4.30119 0.793237 3.54207 1.27419 2.90086 1.89093C2.25964 2.50768 1.74953 3.24751 1.40109 4.06612C1.05265 4.88472 0.873047 5.76524 0.873047 6.65492C0.873047 7.5446 1.05265 8.42512 1.40109 9.24372C1.74953 10.0623 2.25964 10.8022 2.90086 11.4189C3.54207 12.0357 4.30119 12.5166 5.13272 12.833C5.96426 13.1493 6.8511 13.2945 7.7401 13.2599C8.59552 13.2941 9.44849 13.1469 10.243 12.8281C11.0375 12.5092 11.7556 12.0259 12.3501 11.4099C13.4002 10.2563 13.9598 8.73911 13.9101 7.17992C13.9137 6.80465 13.8836 6.42981 13.8201 6.05992H7.7401ZM53.0501 7.45992C52.7893 6.69266 52.3016 6.02271 51.6516 5.53877C51.0016 5.05484 50.2199 4.77974 49.4101 4.74992C48.8631 4.74885 48.3217 4.85999 47.8193 5.07646C47.317 5.29293 46.8644 5.61013 46.4895 6.00846C46.1146 6.40678 45.8254 6.87777 45.6397 7.39231C45.4541 7.90684 45.3759 8.45399 45.4101 8.99992C45.4016 9.91277 45.6885 10.8039 46.2282 11.5402C46.7679 12.2765 47.5313 12.8184 48.4044 13.0851C49.2774 13.3517 50.2134 13.3288 51.0723 13.0196C51.9313 12.7105 52.6672 12.1318 53.1701 11.3699L51.7201 10.3699C51.5039 10.7302 51.1974 11.0277 50.8307 11.2329C50.4641 11.4382 50.0502 11.544 49.6301 11.5399C49.1967 11.5578 48.768 11.4442 48.4003 11.214C48.0327 10.9837 47.7432 10.6477 47.5701 10.2499L53.2601 7.89992L53.0501 7.45992ZM47.2501 8.87992C47.2298 8.5693 47.2717 8.25776 47.3734 7.96354C47.475 7.66932 47.6343 7.39833 47.842 7.16645C48.0497 6.93456 48.3015 6.74645 48.5828 6.61311C48.8641 6.47977 49.1691 6.40389 49.4801 6.38992C49.8023 6.37025 50.1231 6.44611 50.4024 6.60799C50.6817 6.76987 50.907 7.01056 51.0501 7.29992L47.2501 8.87992ZM42.6301 12.9999H44.5001V0.499923H42.6301V12.9999ZM39.5701 5.69992H39.5001C39.2207 5.38178 38.876 5.12773 38.4894 4.95514C38.1028 4.78255 37.6835 4.69549 37.2601 4.69992C36.1673 4.75292 35.1367 5.22434 34.3821 6.01651C33.6274 6.80867 33.2064 7.86082 33.2064 8.95492C33.2064 10.049 33.6274 11.1012 34.3821 11.8933C35.1367 12.6855 36.1673 13.1569 37.2601 13.2099C37.6841 13.2184 38.1047 13.1332 38.4919 12.9603C38.8791 12.7875 39.2234 12.5312 39.5001 12.2099H39.5701V12.8199C39.5701 14.4499 38.7001 15.3199 37.3001 15.3199C36.8324 15.3096 36.3784 15.1606 35.9955 14.8918C35.6127 14.6229 35.3185 14.2464 35.1501 13.8099L33.5301 14.4799C33.8296 15.2322 34.3504 15.8758 35.0235 16.3258C35.6966 16.7757 36.4905 17.0108 37.3001 16.9999C39.4901 16.9999 41.3001 15.7099 41.3001 12.5699V4.99992H39.5701V5.69992ZM37.4201 11.5799C36.7649 11.5391 36.1499 11.25 35.7004 10.7716C35.2509 10.2932 35.0006 9.66139 35.0006 9.00492C35.0006 8.34846 35.2509 7.71668 35.7004 7.23826C36.1499 6.75984 36.7649 6.47077 37.4201 6.42992C37.7403 6.44374 38.0545 6.52184 38.344 6.65956C38.6334 6.79728 38.8922 6.99182 39.1049 7.2316C39.3176 7.47137 39.4799 7.75149 39.5822 8.05528C39.6844 8.35907 39.7245 8.68032 39.7001 8.99992C39.7274 9.32061 39.6893 9.64351 39.5883 9.94908C39.4872 10.2546 39.3252 10.5365 39.1121 10.7777C38.8989 11.0189 38.6391 11.2143 38.3483 11.3522C38.0575 11.4901 37.7417 11.5676 37.4201 11.5799V11.5799ZM61.8101 0.499923H57.3301V12.9999H59.2001V8.25992H61.8101C62.3431 8.29821 62.8782 8.22629 63.3821 8.04865C63.886 7.87101 64.348 7.59145 64.7391 7.22742C65.1302 6.86338 65.4422 6.42267 65.6555 5.93276C65.8688 5.44285 65.9788 4.91425 65.9788 4.37992C65.9788 3.84559 65.8688 3.317 65.6555 2.82709C65.4422 2.33718 65.1302 1.89647 64.7391 1.53243C64.348 1.16839 63.886 0.888838 63.3821 0.711196C62.8782 0.533554 62.3431 0.461634 61.8101 0.499923V0.499923ZM61.8101 6.49992H59.2001V2.23992H61.8501C62.1311 2.23992 62.4094 2.29527 62.669 2.40282C62.9287 2.51036 63.1646 2.668 63.3633 2.86671C63.562 3.06543 63.7197 3.30134 63.8272 3.56098C63.9347 3.82062 63.9901 4.09889 63.9901 4.37992C63.9901 4.66095 63.9347 4.93923 63.8272 5.19887C63.7197 5.4585 63.562 5.69441 63.3633 5.89313C63.1646 6.09185 62.9287 6.24948 62.669 6.35702C62.4094 6.46457 62.1311 6.51992 61.8501 6.51992L61.8101 6.49992ZM73.3501 4.70992C72.6691 4.66793 71.9907 4.82647 71.3989 5.16594C70.8071 5.5054 70.3277 6.0109 70.0201 6.61992L71.6701 7.30992C71.8368 7.00933 72.087 6.76343 72.3905 6.60195C72.6939 6.44047 73.0376 6.3703 73.3801 6.39992C73.6175 6.3722 73.858 6.39202 74.0877 6.45825C74.3173 6.52447 74.5315 6.63576 74.7176 6.78563C74.9038 6.9355 75.0583 7.12095 75.172 7.33115C75.2857 7.54135 75.3565 7.77209 75.3801 8.00992V8.12992C74.7788 7.81384 74.1094 7.64909 73.4301 7.64992C71.6501 7.64992 69.8301 8.64992 69.8301 10.4699C69.8477 10.8568 69.9429 11.2361 70.11 11.5855C70.277 11.9348 70.5126 12.247 70.8027 12.5035C71.0928 12.7601 71.4315 12.9557 71.7987 13.0787C72.1659 13.2018 72.554 13.2498 72.9401 13.2199C73.4094 13.2459 73.8771 13.1466 74.2953 12.9322C74.7135 12.7178 75.0672 12.3961 75.3201 11.9999H75.3801V12.9999H77.1801V8.18992C77.1801 5.99992 75.5201 4.72992 73.3901 4.72992L73.3501 4.70992ZM73.1201 11.5599C72.5101 11.5599 71.6601 11.2499 71.6601 10.4999C71.6601 9.49992 72.7201 9.15992 73.6601 9.15992C74.2541 9.14526 74.8412 9.29031 75.3601 9.57992C75.2973 10.123 75.0398 10.6249 74.6353 10.9926C74.2308 11.3604 73.7067 11.569 73.1601 11.5799L73.1201 11.5599ZM83.7401 4.99992L81.6001 10.4199H81.5401L79.3201 4.99992H77.3201L80.6501 12.5799L78.7501 16.7899H80.7001L85.8201 4.99992H83.7401ZM66.9401 12.9999H68.8001V0.499923H66.9401V12.9999Z" fill="white"/>
</svg>
